<?xml version="1.0" encoding="utf-8"?>
<!-- Generator: Adobe Illustrator 18.0.0, SVG Export Plug-In . SVG Version: 6.00 Build 0)  -->
<!DOCTYPE svg PUBLIC "-//W3C//DTD SVG 1.1//EN" "http://www.w3.org/Graphics/SVG/1.1/DTD/svg11.dtd">
<svg version="1.1" id="Layer_1" xmlns="http://www.w3.org/2000/svg" xmlns:xlink="http://www.w3.org/1999/xlink" x="0px" y="0px"
	 width="116.89px" height="28.69px" viewBox="0 0 116.89 28.69" style="enable-background:new 0 0 116.89 28.69;"
	 xml:space="preserve">
<style type="text/css">
	.st0{fill:#1D1D1B;}
</style>
<g>
	<path class="st0" d="M8.33,16.65L5.29,14.8c-1.91-1.17-3.27-2.31-4.07-3.44C0.4,10.23,0,8.93,0,7.47c0-2.2,0.76-3.99,2.29-5.36
		c1.53-1.38,3.51-2.06,5.96-2.06c2.34,0,4.48,0.66,6.43,1.97v4.54c-2.02-1.94-4.18-2.91-6.51-2.91c-1.31,0-2.38,0.3-3.22,0.91
		C4.1,5.15,3.68,5.93,3.68,6.87c0,0.84,0.31,1.62,0.93,2.35c0.62,0.73,1.62,1.5,2.99,2.3l3.06,1.81c3.41,2.04,5.12,4.63,5.12,7.78
		c0,2.24-0.75,4.06-2.25,5.46c-1.5,1.4-3.45,2.1-5.86,2.1c-2.76,0-5.28-0.85-7.55-2.55v-5.09c2.16,2.74,4.66,4.11,7.51,4.11
		c1.25,0,2.3-0.35,3.13-1.05c0.83-0.7,1.25-1.57,1.25-2.62C12.01,19.79,10.78,18.18,8.33,16.65z"/>
	<path class="st0" d="M19.96,28.37V0.36h8.87c2.67,0,4.8,0.72,6.39,2.16C36.8,3.96,37.6,5.9,37.6,8.33c0,1.63-0.41,3.07-1.22,4.32
		c-0.81,1.25-1.93,2.17-3.34,2.73c-1.42,0.57-3.44,0.85-6.09,0.85h-2.96v12.13H19.96z M28.13,3.92h-4.14v8.75h4.38
		c1.63,0,2.88-0.38,3.76-1.15c0.88-0.77,1.32-1.87,1.32-3.29C33.45,5.36,31.68,3.92,28.13,3.92z"/>
	<path class="st0" d="M54.81,0c4.32,0,7.92,1.37,10.8,4.1c2.88,2.74,4.31,6.17,4.31,10.29c0,4.12-1.45,7.54-4.35,10.24
		c-2.9,2.7-6.56,4.05-10.98,4.05c-4.22,0-7.73-1.35-10.54-4.05c-2.81-2.7-4.21-6.09-4.21-10.16c0-4.18,1.41-7.63,4.24-10.37
		C46.91,1.37,50.49,0,54.81,0z M54.97,3.8c-3.2,0-5.84,1-7.9,3c-2.06,2-3.09,4.56-3.09,7.67c0,3.02,1.03,5.53,3.1,7.53
		c2.07,2,4.66,3,7.77,3c3.12,0,5.73-1.02,7.82-3.06c2.09-2.04,3.13-4.58,3.13-7.63c0-2.96-1.04-5.46-3.13-7.48
		C60.58,4.81,58.02,3.8,54.97,3.8z"/>
	<path class="st0" d="M74.95,28.37V0.4h7.01c2.83,0,5.08,0.7,6.74,2.1c1.66,1.4,2.49,3.3,2.49,5.69c0,1.63-0.41,3.04-1.22,4.22
		c-0.81,1.19-1.98,2.08-3.5,2.66c0.89,0.59,1.77,1.39,2.62,2.4c0.85,1.02,2.06,2.78,3.6,5.3c0.97,1.59,1.75,2.78,2.34,3.58l1.48,2
		h-4.76l-1.22-1.84c-0.04-0.07-0.12-0.18-0.24-0.34l-0.78-1.1l-1.24-2.04l-1.34-2.18c-0.83-1.15-1.58-2.06-2.27-2.74
		c-0.69-0.68-1.31-1.17-1.86-1.47c-0.55-0.3-1.49-0.45-2.79-0.45h-1.04v12.17H74.95z M80.16,3.8h-1.2v8.83h1.52
		c2.03,0,3.42-0.17,4.17-0.52c0.75-0.35,1.34-0.87,1.76-1.57c0.42-0.7,0.63-1.5,0.63-2.39c0-0.88-0.23-1.68-0.7-2.39
		c-0.47-0.71-1.12-1.22-1.97-1.51C83.52,3.95,82.12,3.8,80.16,3.8z"/>
	<path class="st0" d="M93.53,0.36h23.36v3.56h-9.75v24.44h-4.02V3.92h-9.59V0.36z"/>
</g>
<g>
</g>
<g>
</g>
<g>
</g>
<g>
</g>
<g>
</g>
<g>
</g>
<g>
</g>
<g>
</g>
<g>
</g>
<g>
</g>
<g>
</g>
<g>
</g>
<g>
</g>
<g>
</g>
<g>
</g>
</svg>
